<!--?xml version="1.0" encoding="utf-8"?-->
<!-- Generator: Adobe Illustrator 15.1.0, SVG Export Plug-In . SVG Version: 6.00 Build 0)  -->

<svg version="1.1" id="_x32_" xmlns="http://www.w3.org/2000/svg" xmlns:xlink="http://www.w3.org/1999/xlink" x="0px" y="0px" width="512px" height="512px" viewBox="0 0 512 512" style="width: 256px; height: 256px; opacity: 1;" xml:space="preserve">
<style type="text/css">

	.st0{fill:#4B4B4B;}

</style>
<g>
	<path class="st0" d="M511.992,208.508v-19.625c0-7.672-6.234-13.906-13.938-13.906h-9.406H287.258
		c-3.266,0-6.422,1.141-8.922,3.219l-13.422,11.172c-5.156,4.297-12.672,4.297-17.844,0l-13.422-11.172
		c-2.484-2.078-5.656-3.219-8.922-3.219H23.336H13.93c-7.688,0-13.922,6.234-13.922,13.906v19.625c0,3.031-0.438,7.375,7.766,13.094
		c0,0,11.469,6.547,15.563,28.641c6.375,34.391,46.969,97.984,122.891,85.078c75.109-12.766,67.609-89.344,109.766-93.109
		c42.172,3.766,34.672,80.344,109.781,93.109c75.922,12.906,116.5-50.688,122.875-85.078c4.109-22.094,15.578-28.641,15.578-28.641
		C512.414,215.883,511.992,211.539,511.992,208.508z M66.477,265.523c-10.922-15.281-21.844-64.359,4.375-64.359s45.875,0,45.875,0
		S85.055,212.07,66.477,265.523z M330.82,265.523c-10.922-15.281-21.844-64.359,4.375-64.359c26.203,0,45.875,0,45.875,0
		S349.383,212.07,330.82,265.523z" style="fill: rgb(0, 0, 0);"></path>
</g>
</svg>
